<svg id="Capa_1" data-name="Capa 1" xmlns="http://www.w3.org/2000/svg" viewBox="0 0 2715.19 2722.25"><defs><style>.cls-1{fill:#fff;}</style></defs><path d="M1357.84,0c750.62,1.89,1353.91,603.37,1357.34,1353.16,3.46,757.58-604.52,1369.14-1356.14,1369.09C607.7,2722.2,2.52,2117,0,1364.11-2.5,610.72,606.45.79,1357.84,0ZM2376.59,1361.55c3.64-555-451.1-1012.35-998.41-1021.54C799.35,330.29,345.73,796.27,338.84,1345.18c-7.16,571.11,445.48,1019.26,984.08,1037C1917.2,2401.74,2382.09,1915.1,2376.59,1361.55Z"/><path class="cls-1" d="M1187.8,1531.4v40.82c.06,111.14-.23,222.29.28,333.43.43,92.53,77,168.95,168.61,169.22,92.66.28,169.93-74.32,170.74-166.81.92-105.46.22-210.94.22-316.41v-60.36h39.66c110.89,0,221.79.59,332.68-.52,21-.21,43.3-3.61,62.47-11.63,77.79-32.52,120.29-111.3,104.59-189-16.84-83.32-85-138.79-172.26-139.11-109.76-.41-219.53-.12-329.29-.13h-38c0-126.09.24-247.3-.07-368.52-.26-98.57-74.59-174.75-169.8-174.78-94.9,0-169.43,76.69-169.67,175.11-.26,111.14-.12,222.29-.29,333.43,0,10.89-.93,21.77-1.53,34.75-122.68,0-242.47-.19-362.25.06-101.25.21-178,73.57-178.41,170s76.19,170.18,177.54,170.39C942.93,1531.6,1062.79,1531.4,1187.8,1531.4Z"/><path d="M1187.8,1531.4c-125,0-244.87.2-364.73-.06-101.35-.21-178-74-177.54-170.39s77.16-169.78,178.41-170c119.78-.25,239.57-.06,362.25-.06.6-13,1.52-23.86,1.53-34.75.17-111.14,0-222.29.29-333.43.24-98.42,74.77-175.14,169.67-175.11,95.21,0,169.54,76.21,169.8,174.78.31,121.22.07,242.43.07,368.52h38c109.76,0,219.53-.28,329.29.13,87.26.32,155.42,55.79,172.26,139.11,15.7,77.69-26.8,156.47-104.59,189-19.17,8-41.52,11.42-62.47,11.63-110.89,1.11-221.79.52-332.68.52h-39.66v60.36c0,105.47.7,210.95-.22,316.41-.81,92.49-78.08,167.09-170.74,166.81-91.57-.27-168.18-76.69-168.61-169.22-.51-111.14-.22-222.29-.28-333.43Z"/></svg>