<svg id="Capa_1" data-name="Capa 1" xmlns="http://www.w3.org/2000/svg" viewBox="0 0 2715.19 2722.25"><path d="M1473.36,2715.31H1250c-5.13-1.24-10.2-3.18-15.39-3.6-163.55-13.25-318.72-59.76-465.29-130.26-162.67-78.25-299.87-191-418.7-328.15C211.77,2093,121.65,1909.81,69.31,1706a1316.37,1316.37,0,0,1-37.22-219.2V1279.36c1.16-5.16,2.94-10.27,3.39-15.49,12.89-150.65,55-293.72,112.61-432.68C204.5,695.14,294.25,581.12,389.72,471.38c31.81-36.57,69.06-68,106.54-99.33,105.22-88,216.62-164.34,345.28-214.89,135.88-53.39,275.16-93,421-101.48,91.57-5.32,183.78-5.65,275.45,8.59,165,25.63,323.64,72.12,469.18,154.2,138.66,78.19,263.2,175,365.42,299.54C2459.61,624,2538,734.15,2588,863.36c53.67,138.88,93.06,281.47,103.51,429.75a1282.32,1282.32,0,0,1-24.67,356.66c-51.22,242.24-157.13,455.91-323.5,639.46-70.62,77.91-153.28,142-237.91,203.23-123,88.92-262.42,142.33-407.78,182.11C1624,2694.72,1548.82,2705.65,1473.36,2715.31ZM1361,398.05c-541.15,6.22-983.3,445.39-985.43,978.32-2.21,551.49,439.51,995.1,982.67,995.47,542.23.37,988.45-438.52,989.82-986.15C2349.36,841.51,1901.3,404.39,1361,398.05Z"/><path d="M1361.68,1214.29c168.4,0,336.8-.69,505.2.31,77.3.47,143.7,52.2,164.06,123.74,30.3,106.42-48.73,214.76-159.62,217.91-43.4,1.23-86.85.57-130.28.59q-440.07.21-880.13.22C764,1557,682.26,1475.27,684.49,1382c2.16-90.09,79.1-167.5,169.32-167.9,169.28-.75,338.58-.22,507.87-.22Z"/></svg>